<svg width="2884" height="580" fill="none" xmlns="http://www.w3.org/2000/svg"><g clip-path="url(#clip0_61_2)" fill="#D11E46"><path fill-rule="evenodd" clip-rule="evenodd" d="M0 144.741h346.905c68.366 0 123.635 3.721 165.763 11.18 42.027 7.443 76.844 18.136 104.352 32.051 27.508 13.94 47.441 30.136 59.823 48.62 12.348 18.477 18.522 38.048 18.522 58.752 0 32.397-9.229 57.506-27.606 75.364-18.38 17.858-43.871 32.826-76.538 44.904-32.601 12.066-67.693 20.093-105.145 24.09-51.18 5.523-97.573 8.274-139.171 8.274H0V144.741zm233.545 68.671v165.685h57.188c48.807 0 83.504-2.151 104.143-6.516 20.605-4.351 36.735-11.928 48.388-22.751 11.72-10.814 17.575-28.373 17.575-52.638 0-32.144-13.087-54.128-39.162-65.964-26.152-11.886-69.404-17.816-129.876-17.816h-58.256m982.465 184.504H950.888l-36.801 50.06H675.68l283.996-303.235h254.714l283.93 303.235h-244.54l-37.77-50.06zm-48.48-65.548l-83.41-109.012-82.5 109.012h165.91zm147.78-187.627h244.08l170.05 218.22 167.96-218.22h236.93l-280.56 303.235h-253.09l-285.37-303.235z"/><path d="M2611.36 392.873c-10.69 9.123-16.13 22.943-16.13 41.067 0 18.253 3.16 31.125 9.37 38.253 11.24 13.036 25.88 19.364 44.76 19.364 14.88 0 28.13-4.823 39.33-14.337 10.7-9.118 16.12-23.356 16.12-42.331 0-19.9-4.98-33.857-15.26-42.668-10.59-9.067-23.66-13.671-38.88-13.671-14.9 0-28.14 4.819-39.31 14.323"/><path d="M2498.75 524.936h-48.9V508.88c-17.42 13.013-39.45 19.591-65.65 19.591-14.28 0-27.43-1.997-40.2-6.097-12.55-3.832-22.31-9.146-28.89-15.772-6.06-6.164-10.63-14.08-13.66-23.56-1.74-6.92-2.57-16.308-2.57-28.329V345.184h52.89v98.669c0 18.296 1.38 25.672 1.98 27.992 1.8 4.956 5.94 9.504 12.1 12.877 7.1 3.715 15.75 5.551 26.32 5.551 10.43 0 20.56-1.984 30.12-5.892 8.66-3.798 14.71-8.639 18.4-14.724 3.34-6.521 5.15-16.423 5.15-29.001v-95.472h52.91v179.752zm-245.32 0h-52.86V282.202h52.86v242.734zm504.84-85.106c-1.6 26.995-12.12 48.483-31.58 63.806-20.42 16.466-45.42 24.835-74.22 24.835-22.56 0-41.59-5.409-56.82-16.119v12.584h-50.18V282.202h52.88v74.614c15.54-10.072 34.29-15.166 55.89-15.166 5.81 0 11.37.406 16.84 1.023L2363.59.003l-308.28 343.553c8-1.17 16.2-1.906 24.7-1.906 26.11 0 47.84 4.939 64.58 14.684 17.42 9.786 28.82 24.24 33.8 42.899l2.06 7.807-51.33 5.661-1.73-5.425c-2.92-9.223-8.38-16.466-16.2-21.531-8.08-4.719-18.07-7.195-29.4-7.195-18.16 0-32.71 4.599-43.26 13.666-10.93 8.732-16.16 22.641-16.16 42.673 0 20.37 5 34.536 15.26 43.307 10.65 8.842 24.78 13.361 41.94 13.361 13.54 0 25.07-3.053 34.26-9.072 8.8-5.826 14.2-14.509 16.49-26.533l1.19-6.244 52.06 5.258-1.58 7.563c-4.24 20.181-15.98 36.609-34.9 48.831-18.62 11.382-41.13 17.111-67.08 17.111-32.82 0-59.73-7.911-79.93-23.523-19.84-15.659-30.25-37.54-31.28-64.982l-125.24 139.568h1040.07L2758.27 439.83"/></g><defs><clipPath id="clip0_61_2"><path fill="#fff" d="M0 0h2883.63v579.533H0z"/></clipPath></defs></svg>