<svg width="2884" height="580" viewBox="0 0 2884 580" fill="none" xmlns="http://www.w3.org/2000/svg">
<g clip-path="url(#clip0_61_2)">
<path fill-rule="evenodd" clip-rule="evenodd" d="M0 144.741H346.905C415.271 144.741 470.54 148.462 512.668 155.921C554.695 163.364 589.512 174.057 617.02 187.972C644.528 201.912 664.461 218.108 676.843 236.592C689.191 255.069 695.365 274.64 695.365 295.344C695.365 327.741 686.136 352.85 667.759 370.708C649.379 388.566 623.888 403.534 591.221 415.612C558.62 427.678 523.528 435.705 486.076 439.702C434.896 445.225 388.503 447.976 346.905 447.976H0V144.741ZM233.545 213.412V379.097H290.733C339.54 379.097 374.237 376.946 394.876 372.581C415.481 368.23 431.611 360.653 443.264 349.83C454.984 339.016 460.839 321.457 460.839 297.192C460.839 265.048 447.752 243.064 421.677 231.228C395.525 219.342 352.273 213.412 291.801 213.412H233.545" fill="#D11E46"/>
<path fill-rule="evenodd" clip-rule="evenodd" d="M1216.01 397.916H950.888L914.087 447.976H675.68L959.676 144.741H1214.39L1498.32 447.976H1253.78L1216.01 397.916V397.916ZM1167.53 332.368L1084.12 223.356L1001.62 332.368H1167.53Z" fill="#D11E46"/>
<path fill-rule="evenodd" clip-rule="evenodd" d="M1315.31 144.741H1559.39L1729.44 362.961L1897.4 144.741H2134.33L1853.77 447.976H1600.68L1315.31 144.741Z" fill="#D11E46"/>
<path d="M2611.36 392.873C2600.67 401.996 2595.23 415.816 2595.23 433.94C2595.23 452.193 2598.39 465.065 2604.6 472.193C2615.84 485.229 2630.48 491.557 2649.36 491.557C2664.24 491.557 2677.49 486.734 2688.69 477.22C2699.39 468.102 2704.81 453.864 2704.81 434.889C2704.81 414.989 2699.83 401.032 2689.55 392.221C2678.96 383.154 2665.89 378.55 2650.67 378.55C2635.77 378.55 2622.53 383.369 2611.36 392.873" fill="#D11E46"/>
<path d="M2498.75 524.936H2449.85V508.88C2432.43 521.893 2410.4 528.471 2384.2 528.471C2369.92 528.471 2356.77 526.474 2344 522.374C2331.45 518.542 2321.69 513.228 2315.11 506.602C2309.05 500.438 2304.48 492.522 2301.45 483.042C2299.71 476.122 2298.88 466.734 2298.88 454.713V345.184H2351.77V443.853C2351.77 462.149 2353.15 469.525 2353.75 471.845C2355.55 476.801 2359.69 481.349 2365.85 484.722C2372.95 488.437 2381.6 490.273 2392.17 490.273C2402.6 490.273 2412.73 488.289 2422.29 484.381C2430.95 480.583 2437 475.742 2440.69 469.657C2444.03 463.136 2445.84 453.234 2445.84 440.656V345.184H2498.75V524.936ZM2253.43 524.936H2200.57V282.202H2253.43V524.936ZM2758.27 439.83C2756.67 466.825 2746.15 488.313 2726.69 503.636C2706.27 520.102 2681.27 528.471 2652.47 528.471C2629.91 528.471 2610.88 523.062 2595.65 512.352V524.936H2545.47V282.202H2598.35V356.816C2613.89 346.744 2632.64 341.65 2654.24 341.65C2660.05 341.65 2665.61 342.056 2671.08 342.673L2363.59 0.00381058L2055.31 343.556C2063.31 342.386 2071.51 341.65 2080.01 341.65C2106.12 341.65 2127.85 346.589 2144.59 356.334C2162.01 366.12 2173.41 380.574 2178.39 399.233L2180.45 407.04L2129.12 412.701L2127.39 407.276C2124.47 398.053 2119.01 390.81 2111.19 385.745C2103.11 381.026 2093.12 378.55 2081.79 378.55C2063.63 378.55 2049.08 383.149 2038.53 392.216C2027.6 400.948 2022.37 414.857 2022.37 434.889C2022.37 455.259 2027.37 469.425 2037.63 478.196C2048.28 487.038 2062.41 491.557 2079.57 491.557C2093.11 491.557 2104.64 488.504 2113.83 482.485C2122.63 476.659 2128.03 467.976 2130.32 455.952L2131.51 449.708L2183.57 454.966L2181.99 462.529C2177.75 482.71 2166.01 499.138 2147.09 511.36C2128.47 522.742 2105.96 528.471 2080.01 528.471C2047.19 528.471 2020.28 520.56 2000.08 504.948C1980.24 489.289 1969.83 467.408 1968.8 439.966L1843.56 579.534H2883.63L2758.27 439.83" fill="#D11E46"/>
</g>
<defs>
<clipPath id="clip0_61_2">
<rect width="2883.63" height="579.533" fill="white"/>
</clipPath>
</defs>
</svg>
